<svg version="1.1" id="Layer_1" xmlns="http://www.w3.org/2000/svg" xmlns:xlink="http://www.w3.org/1999/xlink" x="0px" y="0px"
	 width="30px" viewBox="0 0 1080 1080" enable-background="new 0 0 1080 1080" xml:space="preserve">
<path fill="#495FA6" opacity="1.000000" stroke="none" 
	d="
M529.000000,1081.000000 
	C352.686951,1081.000000 176.873917,1081.000000 1.030435,1081.000000 
	C1.030435,721.061829 1.030435,361.123657 1.030435,1.092748 
	C360.896576,1.092748 720.793213,1.092748 1080.844971,1.092748 
	C1080.844971,360.999939 1080.844971,720.999939 1080.844971,1081.000000 
	C897.123230,1081.000000 713.311584,1081.000000 529.000000,1081.000000 
M875.500000,316.998047 
	C773.432129,316.998047 671.364319,316.998047 569.350464,316.998047 
	C569.350464,435.240570 569.350464,552.640076 569.350464,670.215454 
	C687.415039,670.215454 805.126892,670.215454 922.942139,670.215454 
	C922.942139,552.309814 922.942139,434.804993 922.942139,316.998047 
	C907.137756,316.998047 891.818909,316.998047 875.500000,316.998047 
M237.751541,639.714844 
	C254.256729,644.671204 268.520416,638.854553 276.849152,624.091431 
	C277.768829,622.461182 280.241089,620.707520 282.002075,620.698425 
	C319.482117,620.503357 356.963623,620.503845 394.443695,620.692749 
	C396.223114,620.701660 398.722473,622.378052 399.648285,623.989319 
	C406.074341,635.173645 415.319702,641.510315 428.414337,641.434692 
	C441.306030,641.360291 450.587769,635.049500 456.581573,623.944397 
	C458.031738,621.257568 459.635986,620.493164 462.401154,620.508850 
	C476.060455,620.586365 489.720490,620.555298 503.380188,620.519592 
	C505.370819,620.514404 507.398132,620.475342 509.343842,620.108643 
	C514.234070,619.187256 517.659851,615.157104 517.864624,610.370239 
	C518.072449,605.512207 515.107971,601.302917 510.188843,600.004456 
	C507.971344,599.419189 505.588440,599.267639 503.278900,599.255676 
	C490.119232,599.187683 476.957489,599.109131 463.799957,599.289185 
	C459.914490,599.342346 457.889038,598.085571 455.532257,594.703613 
	C452.123871,589.812439 447.410156,585.614685 442.587677,582.012207 
	C439.997803,580.077576 438.668518,578.579163 438.725525,575.362244 
	C438.884857,566.369751 439.108459,557.352722 438.587311,548.387207 
	C438.392242,545.030518 436.889221,541.232361 434.760284,538.638855 
	C432.204132,535.524902 428.051056,535.143188 424.158112,536.866150 
	C419.485321,538.934265 417.596893,542.885498 417.531647,547.717651 
	C417.408020,556.878113 417.376770,566.042419 417.509552,575.202209 
	C417.555359,578.361511 416.754517,580.365173 413.679504,581.895386 
	C407.584961,584.928101 403.071106,589.692200 399.752167,595.751587 
	C398.864380,597.372498 396.318085,599.057495 394.524811,599.066589 
	C357.044739,599.257141 319.563202,599.256714 282.083099,599.069275 
	C280.284363,599.060303 278.217712,597.270691 276.754730,595.825500 
	C272.320312,591.445129 268.608093,586.161987 263.658081,582.536316 
	C260.413635,580.159912 258.880188,578.261780 258.964966,574.308533 
	C259.164856,564.985901 259.171234,555.647888 258.858429,546.329529 
	C258.662384,540.489319 253.983017,536.114868 248.643738,535.968811 
	C243.539597,535.829224 239.009216,539.792419 238.057312,545.399353 
	C237.753082,547.191345 237.745239,549.046753 237.737717,550.873718 
	C237.704086,559.036133 237.600204,567.201294 237.776367,575.359985 
	C237.846466,578.606140 236.378326,580.077576 233.880325,582.036621 
	C229.013962,585.853149 224.464218,590.308960 220.703842,595.206726 
	C218.634460,597.901978 217.010056,599.313293 213.608673,599.277771 
	C199.950409,599.135010 186.289520,599.181458 172.630219,599.262512 
	C170.327728,599.276184 167.887177,599.412842 165.757004,600.178650 
	C161.372223,601.755005 158.332367,604.990540 158.178162,609.769409 
	C158.028763,614.400330 161.057938,617.596008 164.997101,619.409973 
	C167.151962,620.402344 169.855133,620.473694 172.314346,620.490784 
	C186.140045,620.587158 199.967331,620.610840 213.792618,620.490723 
	C216.982681,620.463013 218.894043,621.324524 220.379532,624.422913 
	C223.825348,631.609985 229.580475,636.535706 237.751541,639.714844 
M195.538879,503.835999 
	C196.845505,511.618591 200.109314,514.528687 207.876282,514.738342 
	C210.707321,514.814758 213.541977,514.761475 216.374985,514.761230 
	C240.372330,514.759155 264.369812,514.799377 288.366974,514.728149 
	C296.505798,514.703979 301.025085,511.058685 301.118835,503.851807 
	C301.279083,491.529968 301.494507,479.161591 300.645477,466.884735 
	C299.302551,447.465759 284.737213,432.445435 265.458832,430.621918 
	C255.552933,429.684967 245.438873,429.589325 235.522324,430.391815 
	C210.689789,432.401367 196.262024,448.020874 195.556320,472.957703 
	C195.273590,482.948547 195.505753,492.953949 195.538879,503.835999 
M434.499908,514.761780 
	C445.990082,514.754211 457.481812,514.858643 468.969879,514.699036 
	C476.403992,514.595703 480.771179,510.903320 480.851532,504.018311 
	C481.000946,491.207642 481.280518,478.334839 480.251099,465.589233 
	C478.769409,447.244751 464.204254,432.499939 445.948639,430.709747 
	C435.726959,429.707367 425.278168,429.580627 415.044617,430.426025 
	C390.296204,432.470581 375.928436,448.231598 375.300903,473.139221 
	C375.066101,482.458801 375.191132,491.789398 375.259033,501.114166 
	C375.328918,510.709351 379.385590,514.715881 389.037811,514.746094 
	C403.858398,514.792480 418.679169,514.760498 434.499908,514.761780 
M459.813690,375.687408 
	C459.474854,355.769836 436.748260,339.444611 417.312531,347.392395 
	C405.039551,352.411133 396.258118,364.399689 396.582733,377.989197 
	C396.908234,391.615753 406.024384,403.685577 418.798035,407.402405 
	C439.922272,413.549072 458.668152,399.487183 459.813690,375.687408 
M238.338486,407.200562 
	C262.199371,413.848999 282.665924,396.660858 279.568268,372.298615 
	C277.251099,354.074707 259.494995,343.936188 245.846497,345.368134 
	C230.800629,346.946655 218.829453,358.790009 217.118774,372.467621 
	C215.169128,388.055969 222.567719,400.534363 238.338486,407.200562 
M470.043579,724.568054 
	C470.043579,721.611877 470.043579,718.655762 470.043579,715.907288 
	C466.034393,714.246948 463.889557,715.422424 462.154083,718.570129 
	C459.461792,723.453125 456.435272,728.151917 452.976959,733.878357 
	C449.394470,728.149658 446.317688,723.476868 443.509216,718.647949 
	C441.758881,715.638428 439.671600,714.168274 435.819489,715.774231 
	C435.819489,732.005920 435.819489,748.372559 435.819489,765.133240 
	C437.931427,765.021301 439.635803,764.931030 441.800995,764.816284 
	C441.800995,752.824829 441.800995,741.431519 441.800995,730.038208 
	C442.135162,729.924438 442.469330,729.810669 442.803497,729.696899 
	C445.842743,734.485168 448.881989,739.273438 452.557770,745.064575 
	C456.090210,739.580811 459.026855,735.021973 461.963531,730.463074 
	C462.423187,730.612244 462.882874,730.761475 463.342560,730.910645 
	C463.485504,732.619934 463.742462,734.328674 463.752014,736.038696 
	C463.796631,744.037659 463.738037,752.037109 463.786224,760.036072 
	C463.818237,765.350220 464.286133,765.663208 470.043579,764.400452 
	C470.043579,751.506409 470.043579,738.526855 470.043579,724.568054 
M580.197632,740.368164 
	C584.837524,747.677185 589.396118,755.040405 594.192932,762.244934 
	C595.048035,763.529297 596.891235,764.155823 598.278137,765.086121 
	C598.945129,763.594910 600.174805,762.109741 600.191101,760.611450 
	C600.339417,746.955505 600.294617,733.297119 600.247925,719.639709 
	C600.243042,718.220215 599.860229,716.802002 599.682922,715.589661 
	C595.238586,714.212891 594.282959,716.137146 594.337891,719.740051 
	C594.472473,728.565491 594.406311,737.394287 594.370667,746.221558 
	C594.366699,747.196472 594.037476,748.170105 593.722595,749.889832 
	C592.758728,748.451294 592.292542,747.783630 591.854736,747.097900 
	C585.583862,737.274841 579.373840,727.411865 572.973816,717.673706 
	C572.207581,716.507812 570.413452,716.017456 569.095825,715.213989 
	C568.470398,716.549622 567.365051,717.864197 567.305359,719.224670 
	C567.086609,724.211853 567.214355,729.214233 567.213928,734.210938 
	C567.213074,744.328857 567.213684,754.446777 567.213684,764.456665 
	C572.961792,765.495056 573.241638,765.318604 573.274414,760.262878 
	C573.322998,752.768127 573.261597,745.272705 573.311157,737.777954 
	C573.322266,736.105896 573.599243,734.435547 573.753784,732.764404 
	C574.195129,732.657837 574.636414,732.551208 575.077759,732.444641 
	C576.661377,734.873901 578.244995,737.303101 580.197632,740.368164 
M772.010681,751.587402 
	C772.010681,749.157593 772.010681,746.727783 772.010681,744.538391 
	C778.013794,742.855408 781.686462,744.036926 783.824280,749.532471 
	C785.380981,753.534241 788.050659,757.089661 789.820618,761.025574 
	C791.703369,765.212280 794.454834,766.172974 798.905273,764.374939 
	C794.793213,756.824524 790.786926,749.468384 786.807678,742.161865 
	C788.214355,740.998962 789.116821,740.274353 789.996033,739.522461 
	C794.468567,735.697266 796.122314,730.824158 794.745117,725.172363 
	C793.366760,719.515686 789.217834,716.280518 783.713074,715.729004 
	C777.918274,715.148438 772.020203,715.598938 765.842346,715.598938 
	C765.842346,731.704712 765.829468,746.507507 765.850220,761.310364 
	C765.856445,765.745789 768.462769,765.602722 772.010620,764.387878 
	C772.010620,760.487793 772.010620,756.520447 772.010681,751.587402 
M659.945862,758.859375 
	C651.647095,762.947266 643.131714,760.301208 640.157043,752.156067 
	C637.338379,744.438110 637.314880,736.385742 640.318481,728.675537 
	C641.288025,726.186584 643.257141,723.195740 645.510376,722.300659 
	C649.177490,720.843933 653.463196,720.587463 657.465088,720.692566 
	C658.110596,720.709534 658.627747,725.223633 659.233154,727.651672 
	C659.308411,727.953552 659.562927,728.210754 659.743225,728.502869 
	C663.228882,729.680176 664.747559,728.414917 664.533325,724.764771 
	C664.416443,722.772461 664.769897,720.716858 664.399597,718.788025 
	C664.166016,717.571289 663.236145,715.954590 662.194336,715.508667 
	C650.793030,710.628540 636.714050,716.835266 633.499023,728.775452 
	C631.980408,734.415527 631.648926,740.671631 632.193237,746.517029 
	C634.085693,766.837585 649.894958,768.505615 662.518921,764.188232 
	C663.925049,763.707336 665.760498,761.844971 665.830139,760.539673 
	C666.172485,754.123047 665.985657,747.678284 665.985657,741.117798 
	C660.528992,741.117798 655.757019,741.117798 650.565186,741.117798 
	C650.647278,742.844177 650.713562,744.237793 650.787964,745.802063 
	C654.118286,745.969910 657.044189,746.117371 660.349487,746.283936 
	C660.349487,750.477234 660.349487,754.260132 659.945862,758.859375 
M315.483978,721.848145 
	C319.996307,721.484680 324.563416,720.627625 328.980927,721.118164 
	C330.034760,721.235168 330.589142,725.850708 331.441498,728.618835 
	C332.793365,728.618835 334.213104,728.618835 335.577087,728.618835 
	C338.079834,716.900940 336.421417,714.773499 324.894928,714.591553 
	C324.063293,714.578430 323.231232,714.575439 322.399536,714.584351 
	C313.631470,714.677979 307.959412,718.263733 306.506409,724.627686 
	C305.032104,731.084839 308.486725,736.598267 316.500244,740.540405 
	C317.393799,740.979980 318.352142,741.287231 319.248688,741.721436 
	C322.384369,743.239868 325.946960,744.279480 328.490204,746.488037 
	C330.437958,748.179504 332.340363,751.565002 331.971832,753.823181 
	C331.598480,756.110779 328.749725,758.809631 326.365906,759.737976 
	C323.667358,760.788879 320.262634,760.298950 317.196747,760.064148 
	C313.481934,759.779602 311.044861,758.170410 311.407959,753.722351 
	C311.714417,749.968262 309.301025,749.808228 305.862427,750.948486 
	C305.862427,753.778381 305.589569,756.766846 305.983856,759.664490 
	C306.165985,761.002930 307.381744,762.763977 308.589874,763.306396 
	C315.483185,766.401123 322.729370,767.265503 329.953583,764.739868 
	C339.830750,761.286865 341.887085,748.836182 333.702881,742.304871 
	C331.398193,740.465698 328.600800,739.224670 325.972778,737.814758 
	C322.756317,736.089050 319.296539,734.751404 316.273468,732.746216 
	C311.827148,729.797180 311.580872,726.811401 315.483978,721.848145 
M404.457672,754.443359 
	C404.457672,741.506958 404.457672,728.570496 404.457672,715.161011 
	C401.929413,715.295410 400.231720,715.385681 397.887329,715.510254 
	C397.887329,722.935303 397.887329,729.822510 397.887329,736.673340 
	C390.431519,736.673340 383.659485,736.673340 376.224548,736.673340 
	C376.224548,729.475281 376.224548,722.560425 376.224548,715.197693 
	C373.835388,715.302795 372.137939,715.377502 370.432373,715.452576 
	C370.432373,732.278625 370.432373,748.512024 370.432373,764.904846 
	C372.416412,764.904846 374.020782,764.904846 376.230499,764.904846 
	C376.230499,758.531250 376.088654,752.406433 376.336304,746.297424 
	C376.393860,744.878296 377.717041,742.352173 378.561951,742.307678 
	C384.963745,741.969666 391.391479,742.122864 398.322449,742.122864 
	C398.322449,750.178162 398.322449,757.448303 398.322449,764.763245 
	C400.578369,764.763245 402.290985,764.763245 404.457458,764.763245 
	C404.457458,761.378723 404.457458,758.398621 404.457672,754.443359 
M524.654236,723.632019 
	C524.302917,722.523315 523.974609,721.406616 523.595581,720.307434 
	C522.696716,717.700623 522.369629,714.997681 518.297363,714.980774 
	C514.280945,714.964111 513.785095,717.518311 512.897095,720.184570 
	C509.957184,729.011536 506.986115,737.828186 504.075531,746.664856 
	C502.132202,752.564819 500.271423,758.492004 498.351685,764.475647 
	C503.892517,765.486633 503.892548,765.486633 505.231506,762.205872 
	C509.388519,752.020142 509.388489,752.020081 520.371399,752.023010 
	C520.703857,752.023071 521.047852,752.079590 521.367004,752.014587 
	C526.341064,751.001587 528.751648,753.440491 529.622253,758.056458 
	C529.805603,759.028687 530.302063,759.940369 530.500549,760.911438 
	C531.383423,765.231873 533.989319,766.028442 538.336121,764.444458 
	C533.837585,751.042908 529.363159,737.713318 524.654236,723.632019 
M729.399292,715.400146 
	C721.755188,715.305786 714.099854,715.427490 706.471252,715.032898 
	C702.153320,714.809570 700.674500,716.043823 700.773621,720.552917 
	C701.062378,733.690308 700.865417,746.838074 700.889160,759.981812 
	C700.892029,761.567749 701.080566,763.153381 701.185059,764.770874 
	C711.225464,764.770874 720.766357,764.770874 730.187805,764.770874 
	C731.419312,760.979065 730.103882,759.852356 726.734192,759.934631 
	C720.322266,760.091187 713.903809,759.980042 707.460571,759.980042 
	C707.460571,753.608948 707.460571,748.059814 707.460571,741.938171 
	C714.602905,741.938171 721.333069,741.938171 728.517822,741.938171 
	C728.352783,739.947144 728.239136,738.575928 728.082153,736.681641 
	C720.909180,736.681641 714.173706,736.681641 707.047424,736.681641 
	C707.047424,732.317627 707.172058,728.508118 707.007690,724.711121 
	C706.877930,721.715088 708.032654,720.512390 711.047852,720.586304 
	C716.202087,720.712769 721.364624,720.504700 726.518921,720.629578 
	C730.073181,720.715637 731.011902,719.209351 729.399292,715.400146 
z"/>
<path fill="#F5AE84" opacity="1.000000" stroke="none" 
	d="
M876.000000,316.998047 
	C891.818909,316.998047 907.137756,316.998047 922.942139,316.998047 
	C922.942139,434.804993 922.942139,552.309814 922.942139,670.215454 
	C805.126892,670.215454 687.415039,670.215454 569.350464,670.215454 
	C569.350464,552.640076 569.350464,435.240570 569.350464,316.998047 
	C671.364319,316.998047 773.432129,316.998047 876.000000,316.998047 
M775.213684,378.983459 
	C780.947021,380.003387 786.659607,381.169159 792.421265,381.990601 
	C796.104126,382.515656 797.381897,384.230774 797.314514,387.955811 
	C797.115540,398.951691 797.328613,409.954437 797.216125,420.952820 
	C797.178833,424.594391 798.544922,426.006287 802.244751,425.884644 
	C808.737488,425.671173 815.252808,425.600372 821.738281,425.903931 
	C825.900391,426.098724 827.224854,424.678589 827.181091,420.533020 
	C826.999634,403.368896 827.104187,386.201721 827.106567,369.035675 
	C827.107849,359.769012 827.094482,359.816833 818.399170,356.919983 
	C798.902222,350.424469 778.742188,348.534760 758.352600,347.949463 
	C737.460571,347.349701 717.234375,349.706207 697.949158,358.615692 
	C649.624329,380.941101 649.837036,440.987549 678.393372,467.606506 
	C690.813599,479.184021 704.701233,487.930664 719.788635,495.097015 
	C739.784180,504.594757 760.147827,513.346008 779.895813,523.323730 
	C789.187500,528.018372 797.866882,534.414734 803.024353,544.069153 
	C814.951172,566.395081 802.499451,595.196289 777.367432,603.450806 
	C746.995728,613.426208 717.859558,608.889038 689.663818,595.377869 
	C687.971558,594.566956 686.388123,591.614380 686.333801,589.615356 
	C686.017212,577.957581 686.057861,566.285339 686.233582,554.621765 
	C686.291382,550.787231 685.071411,549.212463 681.112549,549.351501 
	C674.787231,549.573547 668.436523,549.646973 662.119385,549.329102 
	C657.770874,549.110229 656.374939,550.492004 656.429688,554.946106 
	C656.659180,573.609192 656.622192,592.277832 656.437439,610.941956 
	C656.400391,614.690369 657.776917,616.554932 661.040100,618.170166 
	C676.662415,625.903198 692.963806,631.625671 710.049561,634.971375 
	C737.621399,640.370483 765.040955,640.722351 791.737305,630.594727 
	C831.657104,615.450684 847.833130,576.766602 838.208740,540.121887 
	C833.885803,523.662415 822.566040,512.087952 809.517212,502.149231 
	C794.698547,490.862640 777.830566,483.219818 760.877502,475.780701 
	C741.658936,467.347443 722.385315,459.095947 705.906006,445.550415 
	C691.594116,433.786530 688.058960,413.905121 698.444336,399.050781 
	C707.294983,386.391602 720.536499,381.495392 734.988098,378.772797 
	C748.119507,376.298920 761.206604,377.921356 775.213684,378.983459 
z"/>
<path fill="#F1AC85" opacity="1.000000" stroke="none" 
	d="
M237.390228,639.575684 
	C229.580475,636.535706 223.825348,631.609985 220.379532,624.422913 
	C218.894043,621.324524 216.982681,620.463013 213.792618,620.490723 
	C199.967331,620.610840 186.140045,620.587158 172.314346,620.490784 
	C169.855133,620.473694 167.151962,620.402344 164.997101,619.409973 
	C161.057938,617.596008 158.028763,614.400330 158.178162,609.769409 
	C158.332367,604.990540 161.372223,601.755005 165.757004,600.178650 
	C167.887177,599.412842 170.327728,599.276184 172.630219,599.262512 
	C186.289520,599.181458 199.950409,599.135010 213.608673,599.277771 
	C217.010056,599.313293 218.634460,597.901978 220.703842,595.206726 
	C224.464218,590.308960 229.013962,585.853149 233.880325,582.036621 
	C236.378326,580.077576 237.846466,578.606140 237.776367,575.359985 
	C237.600204,567.201294 237.704086,559.036133 237.737717,550.873718 
	C237.745239,549.046753 237.753082,547.191345 238.057312,545.399353 
	C239.009216,539.792419 243.539597,535.829224 248.643738,535.968811 
	C253.983017,536.114868 258.662384,540.489319 258.858429,546.329529 
	C259.171234,555.647888 259.164856,564.985901 258.964966,574.308533 
	C258.880188,578.261780 260.413635,580.159912 263.658081,582.536316 
	C268.608093,586.161987 272.320312,591.445129 276.754730,595.825500 
	C278.217712,597.270691 280.284363,599.060303 282.083099,599.069275 
	C319.563202,599.256714 357.044739,599.257141 394.524811,599.066589 
	C396.318085,599.057495 398.864380,597.372498 399.752167,595.751587 
	C403.071106,589.692200 407.584961,584.928101 413.679504,581.895386 
	C416.754517,580.365173 417.555359,578.361511 417.509552,575.202209 
	C417.376770,566.042419 417.408020,556.878113 417.531647,547.717651 
	C417.596893,542.885498 419.485321,538.934265 424.158112,536.866150 
	C428.051056,535.143188 432.204132,535.524902 434.760284,538.638855 
	C436.889221,541.232361 438.392242,545.030518 438.587311,548.387207 
	C439.108459,557.352722 438.884857,566.369751 438.725525,575.362244 
	C438.668518,578.579163 439.997803,580.077576 442.587677,582.012207 
	C447.410156,585.614685 452.123871,589.812439 455.532257,594.703613 
	C457.889038,598.085571 459.914490,599.342346 463.799957,599.289185 
	C476.957489,599.109131 490.119232,599.187683 503.278900,599.255676 
	C505.588440,599.267639 507.971344,599.419189 510.188843,600.004456 
	C515.107971,601.302917 518.072449,605.512207 517.864624,610.370239 
	C517.659851,615.157104 514.234070,619.187256 509.343842,620.108643 
	C507.398132,620.475342 505.370819,620.514404 503.380188,620.519592 
	C489.720490,620.555298 476.060455,620.586365 462.401154,620.508850 
	C459.635986,620.493164 458.031738,621.257568 456.581573,623.944397 
	C450.587769,635.049500 441.306030,641.360291 428.414337,641.434692 
	C415.319702,641.510315 406.074341,635.173645 399.648285,623.989319 
	C398.722473,622.378052 396.223114,620.701660 394.443695,620.692749 
	C356.963623,620.503845 319.482117,620.503357 282.002075,620.698425 
	C280.241089,620.707520 277.768829,622.461182 276.849152,624.091431 
	C268.520416,638.854553 254.256729,644.671204 237.390228,639.575684 
M256.355316,603.281433 
	C251.049835,598.954285 246.995728,598.216125 242.816849,601.232727 
	C239.021393,603.972534 236.960541,607.726868 238.440994,612.501892 
	C239.694550,616.545105 242.240540,619.473572 246.752014,620.176147 
	C251.235779,620.874451 254.630722,619.004028 257.059235,615.496338 
	C259.699463,611.682617 259.465973,607.685547 256.355316,603.281433 
M423.376099,600.711304 
	C419.464203,603.255676 417.024536,606.695190 417.952087,611.505066 
	C418.748627,615.635437 421.130493,618.817017 425.431396,619.939148 
	C430.116455,621.161438 434.012238,619.602112 436.748199,615.727295 
	C439.395477,611.978088 439.305695,607.891602 436.837250,604.076904 
	C434.263123,600.098877 429.717651,598.906555 423.376099,600.711304 
z"/>
<path fill="#F4AD84" opacity="1.000000" stroke="none" 
	d="
M195.521210,503.394348 
	C195.505753,492.953949 195.273590,482.948547 195.556320,472.957703 
	C196.262024,448.020874 210.689789,432.401367 235.522324,430.391815 
	C245.438873,429.589325 255.552933,429.684967 265.458832,430.621918 
	C284.737213,432.445435 299.302551,447.465759 300.645477,466.884735 
	C301.494507,479.161591 301.279083,491.529968 301.118835,503.851807 
	C301.025085,511.058685 296.505798,514.703979 288.366974,514.728149 
	C264.369812,514.799377 240.372330,514.759155 216.374985,514.761230 
	C213.541977,514.761475 210.707321,514.814758 207.876282,514.738342 
	C200.109314,514.528687 196.845505,511.618591 195.521210,503.394348 
z"/>
<path fill="#F4AD84" opacity="1.000000" stroke="none" 
	d="
M433.999878,514.761719 
	C418.679169,514.760498 403.858398,514.792480 389.037811,514.746094 
	C379.385590,514.715881 375.328918,510.709351 375.259033,501.114166 
	C375.191132,491.789398 375.066101,482.458801 375.300903,473.139221 
	C375.928436,448.231598 390.296204,432.470581 415.044617,430.426025 
	C425.278168,429.580627 435.726959,429.707367 445.948639,430.709747 
	C464.204254,432.499939 478.769409,447.244751 480.251099,465.589233 
	C481.280518,478.334839 481.000946,491.207642 480.851532,504.018311 
	C480.771179,510.903320 476.403992,514.595703 468.969879,514.699036 
	C457.481812,514.858643 445.990082,514.754211 433.999878,514.761719 
z"/>
<path fill="#F3AD85" opacity="1.000000" stroke="none" 
	d="
M459.847412,376.136017 
	C458.668152,399.487183 439.922272,413.549072 418.798035,407.402405 
	C406.024384,403.685577 396.908234,391.615753 396.582733,377.989197 
	C396.258118,364.399689 405.039551,352.411133 417.312531,347.392395 
	C436.748260,339.444611 459.474854,355.769836 459.847412,376.136017 
z"/>
<path fill="#F3AD85" opacity="1.000000" stroke="none" 
	d="
M237.959686,407.089722 
	C222.567719,400.534363 215.169128,388.055969 217.118774,372.467621 
	C218.829453,358.790009 230.800629,346.946655 245.846497,345.368134 
	C259.494995,343.936188 277.251099,354.074707 279.568268,372.298615 
	C282.665924,396.660858 262.199371,413.848999 237.959686,407.089722 
z"/>
<path fill="#E9A887" opacity="1.000000" stroke="none" 
	d="
M470.043579,725.057617 
	C470.043579,738.526855 470.043579,751.506409 470.043579,764.400452 
	C464.286133,765.663208 463.818237,765.350220 463.786224,760.036072 
	C463.738037,752.037109 463.796631,744.037659 463.752014,736.038696 
	C463.742462,734.328674 463.485504,732.619934 463.342560,730.910645 
	C462.882874,730.761475 462.423187,730.612244 461.963531,730.463074 
	C459.026855,735.021973 456.090210,739.580811 452.557770,745.064575 
	C448.881989,739.273438 445.842743,734.485168 442.803497,729.696899 
	C442.469330,729.810669 442.135162,729.924438 441.800995,730.038208 
	C441.800995,741.431519 441.800995,752.824829 441.800995,764.816284 
	C439.635803,764.931030 437.931427,765.021301 435.819489,765.133240 
	C435.819489,748.372559 435.819489,732.005920 435.819489,715.774231 
	C439.671600,714.168274 441.758881,715.638428 443.509216,718.647949 
	C446.317688,723.476868 449.394470,728.149658 452.976959,733.878357 
	C456.435272,728.151917 459.461792,723.453125 462.154083,718.570129 
	C463.889557,715.422424 466.034393,714.246948 470.043579,715.907288 
	C470.043579,718.655762 470.043579,721.611877 470.043579,725.057617 
M463.282379,729.864929 
	C463.365814,729.476929 463.449249,729.088867 463.532715,728.700867 
	C463.287140,728.969421 463.041565,729.237915 463.282379,729.864929 
z"/>
<path fill="#EBA986" opacity="1.000000" stroke="none" 
	d="
M580.013123,740.050293 
	C578.244995,737.303101 576.661377,734.873901 575.077759,732.444641 
	C574.636414,732.551208 574.195129,732.657837 573.753784,732.764404 
	C573.599243,734.435547 573.322266,736.105896 573.311157,737.777954 
	C573.261597,745.272705 573.322998,752.768127 573.274414,760.262878 
	C573.241638,765.318604 572.961792,765.495056 567.213684,764.456665 
	C567.213684,754.446777 567.213074,744.328857 567.213928,734.210938 
	C567.214355,729.214233 567.086609,724.211853 567.305359,719.224670 
	C567.365051,717.864197 568.470398,716.549622 569.095825,715.213989 
	C570.413452,716.017456 572.207581,716.507812 572.973816,717.673706 
	C579.373840,727.411865 585.583862,737.274841 591.854736,747.097900 
	C592.292542,747.783630 592.758728,748.451294 593.722595,749.889832 
	C594.037476,748.170105 594.366699,747.196472 594.370667,746.221558 
	C594.406311,737.394287 594.472473,728.565491 594.337891,719.740051 
	C594.282959,716.137146 595.238586,714.212891 599.682922,715.589661 
	C599.860229,716.802002 600.243042,718.220215 600.247925,719.639709 
	C600.294617,733.297119 600.339417,746.955505 600.191101,760.611450 
	C600.174805,762.109741 598.945129,763.594910 598.278137,765.086121 
	C596.891235,764.155823 595.048035,763.529297 594.192932,762.244934 
	C589.396118,755.040405 584.837524,747.677185 580.013123,740.050293 
M573.280762,730.491577 
	C573.458008,730.515625 573.635193,730.539673 573.812439,730.563721 
	C573.736084,730.461182 573.659729,730.358704 573.280762,730.491577 
z"/>
<path fill="#ECAA86" opacity="1.000000" stroke="none" 
	d="
M772.010620,752.070251 
	C772.010620,756.520447 772.010620,760.487793 772.010620,764.387878 
	C768.462769,765.602722 765.856445,765.745789 765.850220,761.310364 
	C765.829468,746.507507 765.842346,731.704712 765.842346,715.598938 
	C772.020203,715.598938 777.918274,715.148438 783.713074,715.729004 
	C789.217834,716.280518 793.366760,719.515686 794.745117,725.172363 
	C796.122314,730.824158 794.468567,735.697266 789.996033,739.522461 
	C789.116821,740.274353 788.214355,740.998962 786.807678,742.161865 
	C790.786926,749.468384 794.793213,756.824524 798.905273,764.374939 
	C794.454834,766.172974 791.703369,765.212280 789.820618,761.025574 
	C788.050659,757.089661 785.380981,753.534241 783.824280,749.532471 
	C781.686462,744.036926 778.013794,742.855408 772.010681,744.538391 
	C772.010681,746.727783 772.010681,749.157593 772.010620,752.070251 
M782.699097,721.183655 
	C779.724792,721.101318 776.710938,720.730774 773.802979,721.130859 
	C773.036621,721.236328 772.050720,723.746094 772.109863,725.110962 
	C772.296570,729.423706 771.724670,734.449463 773.756775,737.796448 
	C775.523438,740.706116 785.220764,737.299744 787.298828,733.727234 
	C789.853882,729.334656 788.491028,724.936768 782.699097,721.183655 
z"/>
<path fill="#EFAB85" opacity="1.000000" stroke="none" 
	d="
M660.147705,758.451172 
	C660.349487,754.260132 660.349487,750.477234 660.349487,746.283936 
	C657.044189,746.117371 654.118286,745.969910 650.787964,745.802063 
	C650.713562,744.237793 650.647278,742.844177 650.565186,741.117798 
	C655.757019,741.117798 660.528992,741.117798 665.985657,741.117798 
	C665.985657,747.678284 666.172485,754.123047 665.830139,760.539673 
	C665.760498,761.844971 663.925049,763.707336 662.518921,764.188232 
	C649.894958,768.505615 634.085693,766.837585 632.193237,746.517029 
	C631.648926,740.671631 631.980408,734.415527 633.499023,728.775452 
	C636.714050,716.835266 650.793030,710.628540 662.194336,715.508667 
	C663.236145,715.954590 664.166016,717.571289 664.399597,718.788025 
	C664.769897,720.716858 664.416443,722.772461 664.533325,724.764771 
	C664.747559,728.414917 663.228882,729.680176 659.743225,728.502869 
	C659.562927,728.210754 659.308411,727.953552 659.233154,727.651672 
	C658.627747,725.223633 658.110596,720.709534 657.465088,720.692566 
	C653.463196,720.587463 649.177490,720.843933 645.510376,722.300659 
	C643.257141,723.195740 641.288025,726.186584 640.318481,728.675537 
	C637.314880,736.385742 637.338379,744.438110 640.157043,752.156067 
	C643.131714,760.301208 651.647095,762.947266 660.147705,758.451172 
z"/>
<path fill="#EDAA86" opacity="1.000000" stroke="none" 
	d="
M315.162720,722.098022 
	C311.580872,726.811401 311.827148,729.797180 316.273468,732.746216 
	C319.296539,734.751404 322.756317,736.089050 325.972778,737.814758 
	C328.600800,739.224670 331.398193,740.465698 333.702881,742.304871 
	C341.887085,748.836182 339.830750,761.286865 329.953583,764.739868 
	C322.729370,767.265503 315.483185,766.401123 308.589874,763.306396 
	C307.381744,762.763977 306.165985,761.002930 305.983856,759.664490 
	C305.589569,756.766846 305.862427,753.778381 305.862427,750.948486 
	C309.301025,749.808228 311.714417,749.968262 311.407959,753.722351 
	C311.044861,758.170410 313.481934,759.779602 317.196747,760.064148 
	C320.262634,760.298950 323.667358,760.788879 326.365906,759.737976 
	C328.749725,758.809631 331.598480,756.110779 331.971832,753.823181 
	C332.340363,751.565002 330.437958,748.179504 328.490204,746.488037 
	C325.946960,744.279480 322.384369,743.239868 319.248688,741.721436 
	C318.352142,741.287231 317.393799,740.979980 316.500244,740.540405 
	C308.486725,736.598267 305.032104,731.084839 306.506409,724.627686 
	C307.959412,718.263733 313.631470,714.677979 322.399536,714.584351 
	C323.231232,714.575439 324.063293,714.578430 324.894928,714.591553 
	C336.421417,714.773499 338.079834,716.900940 335.577087,728.618835 
	C334.213104,728.618835 332.793365,728.618835 331.441498,728.618835 
	C330.589142,725.850708 330.034760,721.235168 328.980927,721.118164 
	C324.563416,720.627625 319.996307,721.484680 315.162720,722.098022 
z"/>
<path fill="#F0AB85" opacity="1.000000" stroke="none" 
	d="
M404.457581,754.930969 
	C404.457458,758.398621 404.457458,761.378723 404.457458,764.763245 
	C402.290985,764.763245 400.578369,764.763245 398.322449,764.763245 
	C398.322449,757.448303 398.322449,750.178162 398.322449,742.122864 
	C391.391479,742.122864 384.963745,741.969666 378.561951,742.307678 
	C377.717041,742.352173 376.393860,744.878296 376.336304,746.297424 
	C376.088654,752.406433 376.230499,758.531250 376.230499,764.904846 
	C374.020782,764.904846 372.416412,764.904846 370.432373,764.904846 
	C370.432373,748.512024 370.432373,732.278625 370.432373,715.452576 
	C372.137939,715.377502 373.835388,715.302795 376.224548,715.197693 
	C376.224548,722.560425 376.224548,729.475281 376.224548,736.673340 
	C383.659485,736.673340 390.431519,736.673340 397.887329,736.673340 
	C397.887329,729.822510 397.887329,722.935303 397.887329,715.510254 
	C400.231720,715.385681 401.929413,715.295410 404.457672,715.161011 
	C404.457672,728.570496 404.457672,741.506958 404.457581,754.930969 
z"/>
<path fill="#EEAA86" opacity="1.000000" stroke="none" 
	d="
M524.771484,724.007812 
	C529.363159,737.713318 533.837585,751.042908 538.336121,764.444458 
	C533.989319,766.028442 531.383423,765.231873 530.500549,760.911438 
	C530.302063,759.940369 529.805603,759.028687 529.622253,758.056458 
	C528.751648,753.440491 526.341064,751.001587 521.367004,752.014587 
	C521.047852,752.079590 520.703857,752.023071 520.371399,752.023010 
	C509.388489,752.020081 509.388519,752.020142 505.231506,762.205872 
	C503.892548,765.486633 503.892517,765.486633 498.351685,764.475647 
	C500.271423,758.492004 502.132202,752.564819 504.075531,746.664856 
	C506.986115,737.828186 509.957184,729.011536 512.897095,720.184570 
	C513.785095,717.518311 514.280945,714.964111 518.297363,714.980774 
	C522.369629,714.997681 522.696716,717.700623 523.595581,720.307434 
	C523.974609,721.406616 524.302917,722.523315 524.771484,724.007812 
M523.245667,738.207703 
	C521.737061,733.520508 520.228516,728.833313 518.719910,724.146118 
	C518.305786,724.206116 517.891663,724.266113 517.477539,724.326050 
	C515.255798,731.509338 513.034119,738.692627 510.640411,746.432129 
	C515.876892,746.432129 520.362244,746.432129 525.489258,746.432129 
	C524.738586,743.632690 524.110779,741.291260 523.245667,738.207703 
z"/>
<path fill="#EEAA86" opacity="1.000000" stroke="none" 
	d="
M729.637451,715.715088 
	C731.011902,719.209351 730.073181,720.715637 726.518921,720.629578 
	C721.364624,720.504700 716.202087,720.712769 711.047852,720.586304 
	C708.032654,720.512390 706.877930,721.715088 707.007690,724.711121 
	C707.172058,728.508118 707.047424,732.317627 707.047424,736.681641 
	C714.173706,736.681641 720.909180,736.681641 728.082153,736.681641 
	C728.239136,738.575928 728.352783,739.947144 728.517822,741.938171 
	C721.333069,741.938171 714.602905,741.938171 707.460571,741.938171 
	C707.460571,748.059814 707.460571,753.608948 707.460571,759.980042 
	C713.903809,759.980042 720.322266,760.091187 726.734192,759.934631 
	C730.103882,759.852356 731.419312,760.979065 730.187805,764.770874 
	C720.766357,764.770874 711.225464,764.770874 701.185059,764.770874 
	C701.080566,763.153381 700.892029,761.567749 700.889160,759.981812 
	C700.865417,746.838074 701.062378,733.690308 700.773621,720.552917 
	C700.674500,716.043823 702.153320,714.809570 706.471252,715.032898 
	C714.099854,715.427490 721.755188,715.305786 729.637451,715.715088 
z"/>
<path fill="#4C60A6" opacity="1.000000" stroke="none" 
	d="
M774.762085,378.936462 
	C761.206604,377.921356 748.119507,376.298920 734.988098,378.772797 
	C720.536499,381.495392 707.294983,386.391602 698.444336,399.050781 
	C688.058960,413.905121 691.594116,433.786530 705.906006,445.550415 
	C722.385315,459.095947 741.658936,467.347443 760.877502,475.780701 
	C777.830566,483.219818 794.698547,490.862640 809.517212,502.149231 
	C822.566040,512.087952 833.885803,523.662415 838.208740,540.121887 
	C847.833130,576.766602 831.657104,615.450684 791.737305,630.594727 
	C765.040955,640.722351 737.621399,640.370483 710.049561,634.971375 
	C692.963806,631.625671 676.662415,625.903198 661.040100,618.170166 
	C657.776917,616.554932 656.400391,614.690369 656.437439,610.941956 
	C656.622192,592.277832 656.659180,573.609192 656.429688,554.946106 
	C656.374939,550.492004 657.770874,549.110229 662.119385,549.329102 
	C668.436523,549.646973 674.787231,549.573547 681.112549,549.351501 
	C685.071411,549.212463 686.291382,550.787231 686.233582,554.621765 
	C686.057861,566.285339 686.017212,577.957581 686.333801,589.615356 
	C686.388123,591.614380 687.971558,594.566956 689.663818,595.377869 
	C717.859558,608.889038 746.995728,613.426208 777.367432,603.450806 
	C802.499451,595.196289 814.951172,566.395081 803.024353,544.069153 
	C797.866882,534.414734 789.187500,528.018372 779.895813,523.323730 
	C760.147827,513.346008 739.784180,504.594757 719.788635,495.097015 
	C704.701233,487.930664 690.813599,479.184021 678.393372,467.606506 
	C649.837036,440.987549 649.624329,380.941101 697.949158,358.615692 
	C717.234375,349.706207 737.460571,347.349701 758.352600,347.949463 
	C778.742188,348.534760 798.902222,350.424469 818.399170,356.919983 
	C827.094482,359.816833 827.107849,359.769012 827.106567,369.035675 
	C827.104187,386.201721 826.999634,403.368896 827.181091,420.533020 
	C827.224854,424.678589 825.900391,426.098724 821.738281,425.903931 
	C815.252808,425.600372 808.737488,425.671173 802.244751,425.884644 
	C798.544922,426.006287 797.178833,424.594391 797.216125,420.952820 
	C797.328613,409.954437 797.115540,398.951691 797.314514,387.955811 
	C797.381897,384.230774 796.104126,382.515656 792.421265,381.990601 
	C786.659607,381.169159 780.947021,380.003387 774.762085,378.936462 
z"/>
<path fill="#5163A4" opacity="1.000000" stroke="none" 
	d="
M256.605347,603.563354 
	C259.465973,607.685547 259.699463,611.682617 257.059235,615.496338 
	C254.630722,619.004028 251.235779,620.874451 246.752014,620.176147 
	C242.240540,619.473572 239.694550,616.545105 238.440994,612.501892 
	C236.960541,607.726868 239.021393,603.972534 242.816849,601.232727 
	C246.995728,598.216125 251.049835,598.954285 256.605347,603.563354 
z"/>
<path fill="#5163A4" opacity="1.000000" stroke="none" 
	d="
M423.709106,600.544067 
	C429.717651,598.906555 434.263123,600.098877 436.837250,604.076904 
	C439.305695,607.891602 439.395477,611.978088 436.748199,615.727295 
	C434.012238,619.602112 430.116455,621.161438 425.431396,619.939148 
	C421.130493,618.817017 418.748627,615.635437 417.952087,611.505066 
	C417.024536,606.695190 419.464203,603.255676 423.709106,600.544067 
z"/>
<path fill="#495FA6" opacity="1.000000" stroke="none" 
	d="
M463.039185,729.685669 
	C463.041565,729.237915 463.287140,728.969421 463.532715,728.700867 
	C463.449249,729.088867 463.365814,729.476929 463.039185,729.685669 
z"/>
<path fill="#495FA6" opacity="1.000000" stroke="none" 
	d="
M573.432068,730.373901 
	C573.659729,730.358704 573.736084,730.461182 573.812439,730.563721 
	C573.635193,730.539673 573.458008,730.515625 573.432068,730.373901 
z"/>
<path fill="#4C60A6" opacity="1.000000" stroke="none" 
	d="
M783.097778,721.320435 
	C788.491028,724.936768 789.853882,729.334656 787.298828,733.727234 
	C785.220764,737.299744 775.523438,740.706116 773.756775,737.796448 
	C771.724670,734.449463 772.296570,729.423706 772.109863,725.110962 
	C772.050720,723.746094 773.036621,721.236328 773.802979,721.130859 
	C776.710938,720.730774 779.724792,721.101318 783.097778,721.320435 
z"/>
<path fill="#5464A4" opacity="1.000000" stroke="none" 
	d="
M523.364258,738.578735 
	C524.110779,741.291260 524.738586,743.632690 525.489258,746.432129 
	C520.362244,746.432129 515.876892,746.432129 510.640411,746.432129 
	C513.034119,738.692627 515.255798,731.509338 517.477539,724.326050 
	C517.891663,724.266113 518.305786,724.206116 518.719910,724.146118 
	C520.228516,728.833313 521.737061,733.520508 523.364258,738.578735 
z"/>
</svg>